<svg width="37" height="57" viewBox="0 0 37 57" fill="none" xmlns="http://www.w3.org/2000/svg">
<path d="M28.3733 55.9035L4.12552 40.4278C4.12552 40.4278 1.08437 38.714 0.387994 35.5207C-0.589693 31.0375 2.63406 27.194 2.63406 27.194L34.1042 47.2861C36.5319 48.8373 37.1947 52.0104 35.6342 54.4039C34.0312 56.8627 30.7369 57.4052 28.3733 55.9035Z" fill="#38D200"/>
<path d="M5.40573 23.8773C5.40573 23.8773 1.69141 21.6788 1.69141 16.5932C1.69141 11.5251 5.40425 9.35365 5.40425 9.35365L18.6606 0.848335C19.8273 0.10485 21.2475 -0.153821 22.6088 0.129231C23.97 0.412282 25.1608 1.21387 25.9192 2.35765C26.6776 3.50144 26.9415 4.89372 26.6528 6.22824C26.364 7.56271 25.5464 8.73012 24.3796 9.47361L13.207 16.6058L32.2436 28.7601C32.2436 28.7601 35.6702 30.6849 36.3453 33.9338C37.2875 38.4663 34.1052 42.2005 34.1052 42.2005L5.40573 23.8773Z" fill="#0473EA"/>
<path d="M30.3573 11.5376C29.1126 11.5376 28.2268 11.9247 27.3626 12.4738L20.8909 16.6058L27.3626 20.7377C28.2352 21.2888 29.1506 21.6744 30.3573 21.6744C31.0406 21.6809 31.7183 21.5547 32.3514 21.3029C32.9845 21.0511 33.5604 20.6788 34.0459 20.2075C34.5313 19.7362 34.9167 19.1753 35.1797 18.5571C35.4427 17.9389 35.5781 17.2758 35.5781 16.606C35.5781 15.9362 35.4427 15.2731 35.1797 14.6549C34.9167 14.0367 34.5313 13.4758 34.0459 13.0045C33.5604 12.5332 32.9845 12.1609 32.3514 11.9091C31.7183 11.6573 31.0406 11.5311 30.3573 11.5376Z" fill="#38D200"/>
<path d="M5.33526 56.7238C6.57994 56.7238 7.46588 56.3367 8.32956 55.7875L14.8012 51.6551L8.32956 47.5237C7.45747 46.9726 6.54199 46.5869 5.33526 46.5869C4.65209 46.5804 3.97435 46.7067 3.34124 46.9585C2.70813 47.2102 2.1322 47.5825 1.64674 48.0538C1.16127 48.5251 0.775908 49.0861 0.512912 49.7042C0.249915 50.3224 0.114502 50.9856 0.114502 51.6553C0.114502 52.325 0.249915 52.9882 0.512912 53.6064C0.775908 54.2246 1.16127 54.7858 1.64674 55.2568C2.1322 55.7284 2.70813 56.1004 3.34124 56.3523C3.97435 56.6041 4.65209 56.73 5.33526 56.7238Z" fill="#0473EA"/>
</svg>
