<svg width="148" height="57" viewBox="0 0 148 57" fill="none" xmlns="http://www.w3.org/2000/svg">
<g clip-path="url(#clip0_473_409)">
<path d="M28.3733 55.9035L4.12552 40.4278C4.12552 40.4278 1.08437 38.714 0.387994 35.5207C-0.589693 31.0375 2.63406 27.194 2.63406 27.194L34.1042 47.2861C36.5319 48.8373 37.1947 52.0104 35.6342 54.4039C34.0312 56.8627 30.7369 57.4052 28.3733 55.9035Z" fill="#38D200"/>
<path d="M5.40573 23.8773C5.40573 23.8773 1.69141 21.6788 1.69141 16.5932C1.69141 11.5251 5.40425 9.35365 5.40425 9.35365L18.6606 0.848335C19.8273 0.10485 21.2475 -0.153821 22.6088 0.129231C23.97 0.412282 25.1608 1.21387 25.9192 2.35765C26.6776 3.50144 26.9415 4.89372 26.6528 6.22824C26.364 7.56271 25.5464 8.73012 24.3796 9.47361L13.207 16.6058L32.2436 28.7601C32.2436 28.7601 35.6702 30.6849 36.3453 33.9338C37.2875 38.4663 34.1052 42.2005 34.1052 42.2005L5.40573 23.8773Z" fill="#0473EA"/>
<path d="M30.3573 11.5376C29.1126 11.5376 28.2268 11.9247 27.3626 12.4738L20.8909 16.6058L27.3626 20.7377C28.2352 21.2888 29.1506 21.6744 30.3573 21.6744C31.0406 21.6809 31.7183 21.5547 32.3514 21.3029C32.9845 21.0511 33.5604 20.6788 34.0459 20.2075C34.5313 19.7362 34.9167 19.1753 35.1797 18.5571C35.4427 17.9389 35.5781 17.2758 35.5781 16.606C35.5781 15.9362 35.4427 15.2731 35.1797 14.6549C34.9167 14.0367 34.5313 13.4758 34.0459 13.0045C33.5604 12.5332 32.9845 12.1609 32.3514 11.9091C31.7183 11.6573 31.0406 11.5311 30.3573 11.5376Z" fill="#38D200"/>
<path d="M5.33526 56.7238C6.57994 56.7238 7.46588 56.3367 8.32956 55.7875L14.8012 51.6551L8.32956 47.5237C7.45747 46.9726 6.54199 46.5869 5.33526 46.5869C4.65209 46.5804 3.97435 46.7067 3.34124 46.9585C2.70813 47.2102 2.1322 47.5825 1.64674 48.0538C1.16127 48.5251 0.775908 49.0861 0.512912 49.7042C0.249915 50.3224 0.114502 50.9856 0.114502 51.6553C0.114502 52.325 0.249915 52.9882 0.512912 53.6064C0.775908 54.2246 1.16127 54.7858 1.64674 55.2568C2.1322 55.7284 2.70813 56.1004 3.34124 56.3523C3.97435 56.6041 4.65209 56.73 5.33526 56.7238Z" fill="#0473EA"/>
<path d="M57.2801 40.6358C58.6486 40.6358 59.9246 40.272 60.9214 39.4306V41.3175C59.8077 42.068 58.4858 42.3863 57.0941 42.3863C53.5896 42.3863 51.1562 39.9986 51.1562 36.5649C51.1562 33.1538 53.661 30.7666 57.1406 30.7666C58.509 30.7666 59.7845 31.1537 60.8052 31.9036V33.9725C59.9008 33.0179 58.6486 32.5176 57.2563 32.5176C54.8207 32.5176 53.1044 34.1776 53.1044 36.5649C53.1044 38.9521 54.8445 40.6358 57.2801 40.6358Z" fill="#525355"/>
<path d="M64.8879 42.1821H63.0088V27.418L64.8879 28.5565V32.8819C65.7463 31.5857 67.1147 30.7671 68.8543 30.7671C71.7307 30.7671 73.2615 32.8359 73.2615 35.5875V42.1821H71.3597V35.9058C71.3597 33.7228 70.3855 32.5636 68.3902 32.5636C66.2796 32.5636 64.8863 34.3368 64.8863 36.5653L64.8879 42.1821Z" fill="#525355"/>
<path d="M84.9288 40.2706C83.9784 41.5895 82.5169 42.3854 80.7309 42.3854C77.3908 42.3854 75.0017 39.9522 75.0017 36.6321C75.0017 33.2453 77.3908 30.7657 80.7309 30.7657C82.5169 30.7657 83.9784 31.5843 84.9288 32.926V30.9703H86.8311V42.1807H84.9288V40.2706ZM76.95 36.6094C76.95 38.9289 78.5971 40.6344 80.9164 40.6344C83.2591 40.6344 84.9288 38.9289 84.9288 36.6094C84.9288 34.2444 83.2591 32.5166 80.9164 32.5166C78.5971 32.5181 76.95 34.2459 76.95 36.6108V36.6094Z" fill="#525355"/>
<path d="M91.6325 42.1821H89.7534V30.9717H91.6325V33.359C92.5369 31.6989 93.9984 30.7671 95.8077 30.7671V32.8819C93.5343 32.5635 91.6325 34.0644 91.6325 36.8382V42.1821Z" fill="#525355"/>
<path d="M115.06 37.293H106.037C106.315 39.3169 107.939 40.6586 110.212 40.6586C111.673 40.6586 113.088 40.2493 114.295 39.4079V41.1816C113.065 42.0002 111.673 42.3868 110.212 42.3868C106.617 42.3868 104.043 40.1128 104.043 36.6776C104.043 33.3121 106.223 30.7657 109.68 30.7657C112.973 30.7657 115.131 33.1529 115.131 36.3593C115.131 36.6718 115.108 36.9839 115.06 37.293ZM106.06 35.7932H113.135C112.949 33.883 111.72 32.4736 109.702 32.4736C107.614 32.4726 106.361 33.9053 106.06 35.7922V35.7932Z" fill="#525355"/>
<path d="M119.073 42.1821H117.194V30.9717H119.073V33.359C119.977 31.6989 121.438 30.7671 123.248 30.7671V32.8819C120.975 32.5635 119.073 34.0644 119.073 36.8382V42.1821Z" fill="#525355"/>
<path d="M134.405 37.293H125.382C125.66 39.3169 127.284 40.6586 129.557 40.6586C131.019 40.6586 132.434 40.2493 133.64 39.4079V41.1816C132.41 42.0002 131.019 42.3868 129.557 42.3868C125.962 42.3868 123.388 40.1128 123.388 36.6776C123.388 33.3121 125.568 30.7657 129.024 30.7657C132.318 30.7657 134.475 33.1529 134.475 36.3593C134.476 36.6718 134.452 36.9839 134.405 37.293ZM125.406 35.7932H132.48C132.294 33.883 131.065 32.4736 129.047 32.4736C126.96 32.4726 125.708 33.9053 125.406 35.7922V35.7932Z" fill="#525355"/>
<path d="M145.684 40.257C144.757 41.5987 143.272 42.4173 141.486 42.4173C138.145 42.4173 135.756 39.9841 135.756 36.6641C135.756 33.2772 138.145 30.7971 141.486 30.7971C143.272 30.7971 144.757 31.639 145.684 33.0029V27.4209L147.586 28.5599V42.1817H145.684V40.257ZM137.705 36.6418C137.705 38.9613 139.351 40.6668 141.671 40.6668C144.014 40.6668 145.684 38.9613 145.684 36.6418C145.684 34.2768 144.014 32.5486 141.671 32.5486C139.351 32.5481 137.705 34.2763 137.705 36.6418Z" fill="#525355"/>
<path d="M99.0907 38.4557C99.0907 40.0248 100.065 40.6387 101.294 40.6387C102.249 40.6478 103.183 40.3613 103.962 39.8201V41.6166C103.172 42.1851 102.083 42.4124 101.132 42.4124C98.6964 42.4124 97.2117 41.3437 97.2117 38.3192V27.4156L99.0907 28.554V38.4557Z" fill="#525355"/>
<path d="M102.128 30.8251C101.805 30.6198 101.412 30.5486 101.036 30.6273C100.66 30.7059 100.33 30.9279 100.121 31.2444C99.9117 31.5609 99.8393 31.946 99.9191 32.315C99.9995 32.684 100.226 33.0066 100.549 33.2119L100.589 33.2365C100.822 33.383 101.094 33.4609 101.371 33.4609C101.648 33.4609 101.919 33.383 102.152 33.2365L104.021 32.0618L102.128 30.8251Z" fill="#525355"/>
<path d="M55.0767 24.4695C56.4214 24.4695 57.3961 23.901 57.3961 22.8777C57.3961 22.2637 57.0716 21.7862 56.2116 21.4451L53.4974 20.3763C52.1055 19.7851 51.3401 19.0119 51.3401 17.5565C51.3401 15.6009 52.9408 14.3729 55.2601 14.3729C56.6048 14.3729 57.8575 14.7367 58.7392 15.3962V17.3315C57.6958 16.422 56.4193 15.8989 55.2845 15.8989C54.0777 15.8989 53.2193 16.4447 53.2193 17.3543C53.2193 18.0365 53.5444 18.4458 54.4493 18.7869L57.1635 19.8557C58.6245 20.4697 59.2979 21.3338 59.2979 22.5391C59.2979 24.6766 57.5346 25.9955 55.0535 25.9955C53.5449 25.9955 52.1766 25.5862 51.1797 24.8585V22.855C52.3854 23.9692 53.731 24.4695 55.0767 24.4695Z" fill="#525355"/>
<path d="M62.8704 22.0364C62.8704 23.6054 63.8441 24.2194 65.0741 24.2194C66.0281 24.2278 66.9605 23.9413 67.7391 23.4007V25.1972C66.9494 25.7657 65.8595 25.9931 64.9086 25.9931C62.473 25.9931 60.9893 24.9243 60.9893 21.8999V12.1265L62.8678 10.9865L62.8704 22.0364Z" fill="#525355"/>
<path d="M78.2487 23.8783C77.2978 25.1972 75.8363 25.9931 74.0502 25.9931C70.7102 25.9931 68.321 23.5599 68.321 20.2399C68.321 16.853 70.7102 14.3729 74.0502 14.3729C75.8363 14.3729 77.2978 15.1915 78.2487 16.5332V14.579H80.151V25.7885H78.2487V23.8783ZM70.2694 20.2171C70.2694 22.5366 71.9164 24.2421 74.2358 24.2421C76.5789 24.2421 78.2487 22.5366 78.2487 20.2171C78.2487 17.8522 76.5789 16.1239 74.2358 16.1239C71.9164 16.1239 70.2694 17.8522 70.2694 20.2171Z" fill="#525355"/>
<path d="M84.9521 25.7885H83.073V14.579H84.9521V16.4892C85.8105 15.193 87.1789 14.3744 88.9185 14.3744C91.795 14.3744 93.3257 16.4437 93.3257 19.1953V25.7899H91.4239V19.5141C91.4239 17.3311 90.4497 16.1713 88.4549 16.1713C86.3438 16.1713 84.9505 17.945 84.9505 20.1736L84.9521 25.7885Z" fill="#525355"/>
<path d="M104.993 23.8328C104.066 25.1745 102.581 25.9931 100.795 25.9931C97.4548 25.9931 95.0657 23.5599 95.0657 20.2399C95.0657 16.853 97.4548 14.3729 100.795 14.3729C102.581 14.3729 104.066 15.2143 104.993 16.5787V12.125L106.896 10.9865V25.7885H104.993V23.8328ZM97.014 20.2171C97.014 22.5366 98.661 24.2422 100.98 24.2422C103.324 24.2422 104.993 22.5366 104.993 20.2171C104.993 17.8521 103.324 16.1239 100.98 16.1239C98.6626 16.1239 97.014 17.8521 97.014 20.2171Z" fill="#525355"/>
<path d="M139.788 23.8328C138.86 25.1745 137.375 25.9931 135.589 25.9931C132.249 25.9931 129.859 23.5599 129.859 20.2399C129.859 16.853 132.249 14.3729 135.589 14.3729C137.375 14.3729 138.86 15.2143 139.788 16.5787V12.125L141.689 10.9865V25.7885H139.788V23.8328ZM131.808 20.2171C131.808 22.5366 133.455 24.2422 135.775 24.2422C138.117 24.2422 139.788 22.5366 139.788 20.2171C139.788 17.8521 138.117 16.1239 135.775 16.1239C133.456 16.1239 131.808 17.8521 131.808 20.2171Z" fill="#525355"/>
<path d="M118.865 23.8783C117.914 25.1972 116.452 25.9931 114.666 25.9931C111.326 25.9931 108.937 23.5599 108.937 20.2399C108.937 16.853 111.326 14.3729 114.666 14.3729C116.452 14.3729 117.914 15.1915 118.865 16.5332V14.579H120.767V25.7885H118.865V23.8783ZM110.885 20.2171C110.885 22.5366 112.532 24.2421 114.852 24.2421C117.194 24.2421 118.865 22.5366 118.865 20.2171C118.865 17.8522 117.194 16.1239 114.852 16.1239C112.531 16.1239 110.885 17.8522 110.885 20.2171Z" fill="#525355"/>
<path d="M125.568 25.7885H123.689V14.579H125.568V16.9667C126.472 15.3067 127.934 14.3744 129.743 14.3744V16.4892C127.47 16.1708 125.568 17.6717 125.568 20.4459V25.7885Z" fill="#525355"/>
<path d="M65.5186 16.9667C65.6788 17.0693 65.858 17.1398 66.0461 17.1743C66.2338 17.2087 66.4272 17.2063 66.6138 17.1674C66.8009 17.1284 66.9785 17.0536 67.1361 16.9472C67.2936 16.8408 67.4278 16.7049 67.5314 16.5475C67.635 16.3899 67.7064 16.2139 67.7402 16.0294C67.7746 15.845 67.7709 15.6557 67.7302 15.4726C67.6895 15.2894 67.6118 15.1159 67.5024 14.9622C67.3929 14.8085 67.2539 14.6774 67.0927 14.5766L67.0525 14.552C66.8189 14.4064 66.5472 14.3296 66.2703 14.3305C65.9928 14.3314 65.7221 14.4101 65.489 14.5572L63.6216 15.7364L65.5186 16.9667Z" fill="#525355"/>
</g>
<defs>
<clipPath id="clip0_473_409">
<rect width="148" height="57" fill="white"/>
</clipPath>
</defs>
</svg>
